<svg id="visual" viewBox="0 0 900 600" width="900" height="600" xmlns="http://www.w3.org/2000/svg" xmlns:xlink="http://www.w3.org/1999/xlink" version="1.1"><rect x="0" y="0" width="900" height="600" fill="#002233"></rect><path d="M0 345L25 346.8C50 348.7 100 352.3 150 368.8C200 385.3 250 414.7 300 411C350 407.3 400 370.7 450 371.8C500 373 550 412 600 411.2C650 410.3 700 369.7 750 351.2C800 332.7 850 336.3 875 338.2L900 340L900 601L875 601C850 601 800 601 750 601C700 601 650 601 600 601C550 601 500 601 450 601C400 601 350 601 300 601C250 601 200 601 150 601C100 601 50 601 25 601L0 601Z" fill="#0066FF" stroke-linecap="round" stroke-linejoin="miter"></path></svg>