<svg id="visual" viewBox="0 0 900 600" width="900" height="600" xmlns="http://www.w3.org/2000/svg" xmlns:xlink="http://www.w3.org/1999/xlink" version="1.1"><rect x="0" y="0" width="900" height="600" fill="#30541C"></rect><path d="M0 253L25 251.2C50 249.3 100 245.7 150 229.2C200 212.7 250 183.3 300 187C350 190.7 400 227.3 450 226.2C500 225 550 186 600 186.8C650 187.7 700 228.3 750 246.8C800 265.3 850 261.7 875 259.8L900 258L900 0L875 0C850 0 800 0 750 0C700 0 650 0 600 0C550 0 500 0 450 0C400 0 350 0 300 0C250 0 200 0 150 0C100 0 50 0 25 0L0 0Z" fill="#f9f9f7" stroke-linecap="round" stroke-linejoin="miter"></path></svg>